<svg xmlns="http://www.w3.org/2000/svg" viewBox="0 0 1400 1400"><g fill="none" stroke="#e59093" stroke-width="2"><path d="M1129.51 687.41q-56.17-96.61-112.62-194.02c-20.12-34.72-48.1-63.69-88.71-72.57-57.4-12.55-110.72 29.07-118.29 86.22q-.89 6.71-.89 19.97v160.56q0 2.98-1.49.4-54.25-93.63-108.88-187.46c-10.06-17.27-19.63-32.45-33.79-46.7-35.93-36.18-90.52-48.08-134.34-17.76q-28.88 19.99-39.24 54.83-4.51 15.19-4.51 25.87.01 136.87-.01 273.73c0 11.55-.75 21.1-11.91 25.26q-4.06 1.52-13.84 1.52-44.47.01-88.92-.04-13.84-.02-19.98-.62c-104.1-10.32-144.49-139.49-64.88-207.36 18.31-15.61 41.14-24.92 65.06-27.2q5.91-.56 19.97-.55 39.61.04 79.26-.02a1 1 0 0 0 1-1v-66.94a1.01 1 .3 0 0-1-1q-42.47-.09-84.95 0-12.87.03-19.97.63c-98.02 8.33-172.73 91.17-171.15 189.54 1.37 85.84 61.16 158.43 144.17 178.29q21.02 5.03 37.65 5.02 87.67-.03 175.35.01c10 0 17.96-3.46 21.53-13.19q1.38-3.78 1.38-11.34-.03-166.18.01-332.34 0-10.4 1.42-15.52c3.25-11.74 11.56-21.11 22.87-25.59 20.26-8.03 40.84 3.66 51.18 21.49q106.25 183.15 212.5 366.31c6.18 10.66 17.59 20.56 29.28 10.75 2.94-2.46 5.24-7.22 5.24-10.84q-.03-172.38 0-344.76.01-11.79 1.47-17.22c3.6-13.37 13.89-23.75 27.28-27.22 17.5-4.52 35.08 5.28 44.47 20.21q6.45 10.26 12.54 20.76 101.44 175.01 202.93 350.01 3.68 6.35 9.38 10.13c10.48 6.95 24.17.01 24.17-12.66q.01-226.49-.01-453a1 1 0 0 0-1-1H1132a1 1 0 0 0-1 1v265q0 2.97-1.49.41" vector-effect="non-scaling-stroke"/><path d="M970.99 710.87q58.74 101.41 117.73 202.65c18.17 31.19 50.98 59.26 87.77 65.02 62.89 9.85 115.26-39.38 115.26-101.29V422a1 1 0 0 0-1-1H1224a1 1 0 0 0-1 1q.01 222-.01 443.99 0 13.28-1.48 18.76c-7.64 28.28-41.01 37.15-62.6 18.06q-7.34-6.49-10.44-11.82-107.57-185.41-215.15-370.8-4.15-7.16-11.31-10.53c-7.75-3.66-16.63-.31-19.89 7.5q-1.38 3.29-1.37 9.88.01 173.95-.02 347.9c0 30.87-34.75 48.86-60.35 30.81-10.1-7.13-14.08-14.66-21.73-27.83Q714.89 699.13 611.04 520.4c-5.14-8.84-15.49-16.27-25.8-9.86q-7.24 4.5-7.24 14.21 0 169.38-.01 338.75 0 8.51-1.33 13.23c-4.17 14.77-16 26.58-30.67 30.5q-5.68 1.52-19.12 1.52-80.15.02-160.31-.03-12.8-.01-19.98-.57c-112.9-8.79-197.9-104.94-193.6-217.6 4.01-105.24 87.39-190.85 191.79-199.91q7.46-.65 19.98-.65 43.45.02 86.75 0a1 1 0 0 0 1-1v-66.96a1 1 0 0 0-1-1q-43.5-.05-87.01-.03-12.66 0-19.98.46c-128.16 8.09-236.35 104.78-256.8 231.37C61.19 816.98 180.37 968.75 348 977.38q6.81.35 20 .36 83.33.04 166.66-.01c54.96-.04 97.35-23.55 109.46-79.47q3.12-14.41 3.12-27.01.02-80.02.01-159.95 0-2.97 1.49-.4 56.29 97.15 112.77 194.16c10.2 17.53 21.87 33.53 37.04 46.62 30.09 25.96 70.29 36.13 108.16 21.07 35.13-13.98 58.44-47.17 62.17-84.52q.59-5.92.6-19.98.04-78.52.01-156.97 0-2.98 1.5-.41" vector-effect="non-scaling-stroke"/></g><path fill="#ca2026" d="M0 0h1400v1400H0V0Zm1129.51 687.41q-56.17-96.61-112.62-194.02c-20.12-34.72-48.1-63.69-88.71-72.57-57.4-12.55-110.72 29.07-118.29 86.22q-.89 6.71-.89 19.97v160.56q0 2.98-1.49.4-54.25-93.63-108.88-187.46c-10.06-17.27-19.63-32.45-33.79-46.7-35.93-36.18-90.52-48.08-134.34-17.76q-28.88 19.99-39.24 54.83-4.51 15.19-4.51 25.87.01 136.87-.01 273.73c0 11.55-.75 21.1-11.91 25.26q-4.06 1.52-13.84 1.52-44.47.01-88.92-.04-13.84-.02-19.98-.62c-104.1-10.32-144.49-139.49-64.88-207.36 18.31-15.61 41.14-24.92 65.06-27.2q5.91-.56 19.97-.55 39.61.04 79.26-.02a1 1 0 0 0 1-1v-66.94a1.01 1 .3 0 0-1-1q-42.47-.09-84.95 0-12.87.03-19.97.63c-98.02 8.33-172.73 91.17-171.15 189.54 1.37 85.84 61.16 158.43 144.17 178.29q21.02 5.03 37.65 5.02 87.67-.03 175.35.01c10 0 17.96-3.46 21.53-13.19q1.38-3.78 1.38-11.34-.03-166.18.01-332.34 0-10.4 1.42-15.52c3.25-11.74 11.56-21.11 22.87-25.59 20.26-8.03 40.84 3.66 51.18 21.49q106.25 183.15 212.5 366.31c6.18 10.66 17.59 20.56 29.28 10.75 2.94-2.46 5.24-7.22 5.24-10.84q-.03-172.38 0-344.76.01-11.79 1.47-17.22c3.6-13.37 13.89-23.75 27.28-27.22 17.5-4.52 35.08 5.28 44.47 20.21q6.45 10.26 12.54 20.76 101.44 175.01 202.93 350.01 3.68 6.35 9.38 10.13c10.48 6.95 24.17.01 24.17-12.66q.01-226.49-.01-453a1 1 0 0 0-1-1H1132a1 1 0 0 0-1 1v265q0 2.97-1.49.41Zm-158.52 23.46q58.74 101.41 117.73 202.65c18.17 31.19 50.98 59.26 87.77 65.02 62.89 9.85 115.26-39.38 115.26-101.29V422a1 1 0 0 0-1-1H1224a1 1 0 0 0-1 1q.01 222-.01 443.99 0 13.28-1.48 18.76c-7.64 28.28-41.01 37.15-62.6 18.06q-7.34-6.49-10.44-11.82-107.57-185.41-215.15-370.8-4.15-7.16-11.31-10.53c-7.75-3.66-16.63-.31-19.89 7.5q-1.38 3.29-1.37 9.88.01 173.95-.02 347.9c0 30.87-34.75 48.86-60.35 30.81-10.1-7.13-14.08-14.66-21.73-27.83Q714.89 699.13 611.04 520.4c-5.14-8.84-15.49-16.27-25.8-9.86q-7.24 4.5-7.24 14.21 0 169.38-.01 338.75 0 8.51-1.33 13.23c-4.17 14.77-16 26.58-30.67 30.5q-5.68 1.52-19.12 1.52-80.15.02-160.31-.03-12.8-.01-19.98-.57c-112.9-8.79-197.9-104.94-193.6-217.6 4.01-105.24 87.39-190.85 191.79-199.91q7.46-.65 19.98-.65 43.45.02 86.75 0a1 1 0 0 0 1-1v-66.96a1 1 0 0 0-1-1q-43.5-.05-87.01-.03-12.66 0-19.98.46c-128.16 8.09-236.35 104.78-256.8 231.37C61.19 816.98 180.37 968.75 348 977.38q6.81.35 20 .36 83.33.04 166.66-.01c54.96-.04 97.35-23.55 109.46-79.47q3.12-14.41 3.12-27.01.02-80.02.01-159.95 0-2.97 1.49-.4 56.29 97.15 112.77 194.16c10.2 17.53 21.87 33.53 37.04 46.62 30.09 25.96 70.29 36.13 108.16 21.07 35.13-13.98 58.44-47.17 62.17-84.52q.59-5.92.6-19.98.04-78.52.01-156.97 0-2.98 1.5-.41Z"/><path fill="#fff" d="M1129.51 687.41q1.49 2.56 1.49-.41V422a1 1 0 0 1 1-1h67.24a1 1 0 0 1 1 1q.02 226.51.01 453c0 12.67-13.69 19.61-24.17 12.66q-5.7-3.78-9.38-10.13-101.49-175-202.93-350.01-6.09-10.5-12.54-20.76c-9.39-14.93-26.97-24.73-44.47-20.21-13.39 3.47-23.68 13.85-27.28 27.22q-1.46 5.43-1.47 17.22-.03 172.38 0 344.76c0 3.62-2.3 8.38-5.24 10.84-11.69 9.81-23.1-.09-29.28-10.75q-106.25-183.16-212.5-366.31c-10.34-17.83-30.92-29.52-51.18-21.49-11.31 4.48-19.62 13.85-22.87 25.59q-1.42 5.12-1.42 15.52-.04 166.16-.01 332.34 0 7.56-1.38 11.34c-3.57 9.73-11.53 13.19-21.53 13.19q-87.68-.04-175.35-.01-16.63.01-37.65-5.02c-83.01-19.86-142.8-92.45-144.17-178.29-1.58-98.37 73.13-181.21 171.15-189.54q7.1-.6 19.97-.63 42.48-.09 84.95 0a1.01 1 .3 0 1 1 1v66.94a1 1 0 0 1-1 1q-39.65.06-79.26.02-14.06-.01-19.97.55c-23.92 2.28-46.75 11.59-65.06 27.2-79.61 67.87-39.22 197.04 64.88 207.36q6.14.6 19.98.62 44.45.05 88.92.04 9.78 0 13.84-1.52c11.16-4.16 11.91-13.71 11.91-25.26q.02-136.86.01-273.73 0-10.68 4.51-25.87 10.36-34.84 39.24-54.83c43.82-30.32 98.41-18.42 134.34 17.76 14.16 14.25 23.73 29.43 33.79 46.7q54.63 93.83 108.88 187.46 1.49 2.58 1.49-.4V527.01q0-13.26.89-19.97c7.57-57.15 60.89-98.77 118.29-86.22 40.61 8.88 68.59 37.85 88.71 72.57q56.45 97.41 112.62 194.02Z"/><path fill="#fff" d="M970.99 710.87q-1.5-2.57-1.5.41.03 78.45-.01 156.97-.01 14.06-.6 19.98c-3.73 37.35-27.04 70.54-62.17 84.52-37.87 15.06-78.07 4.89-108.16-21.07-15.17-13.09-26.84-29.09-37.04-46.62q-56.48-97.01-112.77-194.16-1.49-2.57-1.49.4.01 79.93-.01 159.95 0 12.6-3.12 27.01c-12.11 55.92-54.5 79.43-109.46 79.47q-83.33.05-166.66.01-13.19-.01-20-.36c-167.63-8.63-286.81-160.4-260.29-324.55 20.45-126.59 128.64-223.28 256.8-231.37q7.32-.46 19.98-.46 43.51-.02 87.01.03a1 1 0 0 1 1 1v66.96a1 1 0 0 1-1 1q-43.3.02-86.75 0-12.52 0-19.98.65c-104.4 9.06-187.78 94.67-191.79 199.91-4.3 112.66 80.7 208.81 193.6 217.6q7.18.56 19.98.57 80.16.05 160.31.03 13.44 0 19.12-1.52c14.67-3.92 26.5-15.73 30.67-30.5q1.33-4.72 1.33-13.23.01-169.37.01-338.75 0-9.71 7.24-14.21c10.31-6.41 20.66 1.02 25.8 9.86q103.85 178.73 207.61 357.52c7.65 13.17 11.63 20.7 21.73 27.83 25.6 18.05 60.35.06 60.35-30.81q.03-173.95.02-347.9-.01-6.59 1.37-9.88c3.26-7.81 12.14-11.16 19.89-7.5q7.16 3.37 11.31 10.53 107.58 185.39 215.15 370.8 3.1 5.33 10.44 11.82c21.59 19.09 54.96 10.22 62.6-18.06q1.48-5.48 1.48-18.76.02-221.99.01-443.99a1 1 0 0 1 1-1h66.75a1 1 0 0 1 1 1v455.25c0 61.91-52.37 111.14-115.26 101.29-36.79-5.76-69.6-33.83-87.77-65.02q-58.99-101.24-117.73-202.65Z"/></svg>